<svg width="138" height="35" viewBox="0 0 138 35" fill="none" xmlns="http://www.w3.org/2000/svg">
<g clip-path="url(#clip0_123_2140)">
<path d="M18.2778 29.4571H2.13184V5.54272H18.6397C20.3466 5.54272 21.8876 6.19411 23.0909 7.42753C24.4087 8.77856 25.1355 10.6211 25.1355 12.6175V22.5391C25.1355 27.3069 20.6904 29.1435 18.3412 29.4511L18.2778 29.4601V29.4571ZM4.07092 27.518H18.1451C18.7241 27.4276 23.1964 26.5952 23.1964 22.5361V12.6175C23.1964 11.1519 22.6536 9.75262 21.7036 8.78157C20.8623 7.91909 19.8309 7.48181 18.6397 7.48181H4.06791V27.518H4.07092Z" fill="#2B59FF"/>
<path d="M15.6872 23.3202C15.1384 23.3202 14.5925 23.1634 14.0527 22.8528C13.1631 22.3341 12.6293 21.6767 12.1559 21.0976L12.1227 21.0554C11.6221 20.4402 11.1456 19.8099 10.6842 19.2008C10.3555 18.7665 10.0268 18.3323 9.68903 17.901C9.34524 17.4637 8.98034 17.0868 8.57322 16.749C8.42545 16.6254 8.2415 16.5168 8.02135 16.4263C7.66852 16.2756 7.45742 16.2816 7.11665 16.4475C6.53462 16.7309 6.19083 17.1139 5.79577 17.5602C5.3193 18.097 4.88805 18.6459 4.51712 19.1917C4.44173 19.3184 4.21857 19.7044 3.63654 19.7557L3.39529 19.7768L3.18419 19.6561C2.85246 19.4662 2.75596 19.1917 2.72581 19.044C2.6474 18.6489 2.86453 18.3745 2.9369 18.284C3.5521 17.3944 4.25777 16.4475 5.22883 15.591C5.61785 15.2472 6.20591 14.7315 7.28251 14.6471C8.5491 14.5506 9.30604 15.0391 9.82473 15.4764C10.8048 16.3057 11.4743 17.2104 12.1227 18.088C12.2313 18.2358 12.3398 18.3805 12.4484 18.5283C12.5569 18.673 12.6625 18.8178 12.768 18.9625C13.335 19.7315 13.8688 20.4583 14.6438 21.0946C15.4611 21.7641 15.9104 21.7701 16.7337 21.1127C17.4876 20.5126 18.0003 19.816 18.5431 19.0801C18.6486 18.9384 18.7542 18.7937 18.8597 18.6519C19.0045 18.4589 19.1432 18.2659 19.2849 18.0729C19.9574 17.1501 20.651 16.1941 21.7518 15.3437C22.2071 14.9909 22.8676 14.5958 23.9231 14.638C24.487 14.6622 24.9182 14.7737 25.3133 14.9999C26.4683 15.6543 27.1287 16.5048 27.7108 17.2557L27.8616 17.4487C28.142 17.8075 28.4074 18.1664 28.6728 18.5283C29.2427 19.3063 29.7825 20.0391 30.4581 20.7388C30.6933 20.983 30.9949 21.2635 31.4321 21.4716C31.788 21.6405 32.0594 21.6405 32.4002 21.4716C32.9762 21.1851 33.3501 20.8142 33.7693 20.3136C34.0407 19.9879 34.294 19.6592 34.5503 19.3274C34.7102 19.1224 34.87 18.9143 35.0329 18.7092C35.2379 18.3564 35.5485 18.1754 35.9557 18.1664L36.212 18.1604L36.4201 18.3081C36.6312 18.4589 36.7699 18.673 36.8061 18.9173C36.8634 19.2973 36.6523 19.5657 36.5829 19.6531L36.3779 19.9336C35.7295 20.8262 35.057 21.746 33.9864 22.5602C33.4466 22.9704 32.8073 23.3473 31.794 23.3051C30.8199 23.2629 30.2349 22.8678 29.7584 22.4999C28.9351 21.8636 28.3863 21.1519 27.8525 20.4643L27.759 20.3437C27.4997 20.009 27.2524 19.6712 27.0051 19.3304C26.4864 18.6157 25.9948 17.9432 25.3796 17.3009C25.054 16.9601 24.7554 16.6917 24.3483 16.4746C23.9472 16.2605 23.7301 16.2544 23.341 16.4505C22.5328 16.8546 22.1016 17.4034 21.601 18.0337L21.402 18.284C21.0732 18.6911 20.7596 19.1224 20.455 19.5355C19.8549 20.3558 19.2337 21.2062 18.4255 22.0084C18.1631 22.2707 17.7952 22.6055 17.2825 22.8829C16.7487 23.1724 16.215 23.3172 15.6872 23.3172V23.3202Z" fill="#182547"/>
<path d="M37.5128 15.4253H34.1865C33.7135 15.4253 33.3301 15.8087 33.3301 16.2817V19.608C33.3301 20.0811 33.7135 20.4645 34.1865 20.4645H37.5128C37.9858 20.4645 38.3693 20.0811 38.3693 19.608V16.2817C38.3693 15.8087 37.9858 15.4253 37.5128 15.4253Z" fill="#EFF3F9"/>
<path d="M37.2652 21.2393H34.4304C33.3961 21.2393 32.5547 20.398 32.5547 19.3636V16.5288C32.5547 15.4945 33.3961 14.6531 34.4304 14.6531H37.2652C38.2996 14.6531 39.1409 15.4945 39.1409 16.5288V19.3636C39.1409 20.398 38.2996 21.2393 37.2652 21.2393ZM34.4304 16.2001C34.2495 16.2001 34.1048 16.3479 34.1048 16.5258V19.3606C34.1048 19.5415 34.2525 19.6863 34.4304 19.6863H37.2652C37.4461 19.6863 37.5909 19.5385 37.5909 19.3606V16.5258C37.5909 16.3449 37.4431 16.2001 37.2652 16.2001H34.4304Z" fill="#2B59FF"/>
<path d="M4.95717 15.4253H1.63087C1.15786 15.4253 0.774414 15.8087 0.774414 16.2817V19.608C0.774414 20.0811 1.15786 20.4645 1.63087 20.4645H4.95717C5.43018 20.4645 5.81363 20.0811 5.81363 19.608V16.2817C5.81363 15.8087 5.43018 15.4253 4.95717 15.4253Z" fill="#EFF3F9"/>
<path d="M4.7105 21.2393H1.87576C0.841376 21.2393 0 20.398 0 19.3636V16.5288C0 15.4945 0.841376 14.6531 1.87576 14.6531H4.7105C5.74488 14.6531 6.58626 15.4945 6.58626 16.5288V19.3636C6.58626 20.398 5.74488 21.2393 4.7105 21.2393ZM1.87576 16.2001C1.69482 16.2001 1.55006 16.3479 1.55006 16.5258V19.3606C1.55006 19.5415 1.69783 19.6863 1.87576 19.6863H4.7105C4.89144 19.6863 5.0362 19.5385 5.0362 19.3606V16.5258C5.0362 16.3449 4.88843 16.2001 4.7105 16.2001H1.87576Z" fill="#2B59FF"/>
</g>
<path d="M53.1637 24.5V22.4104H55.2097V11.3529H53.1637V9.26333H59.2583C61.2899 9.26333 62.8426 9.77848 63.9164 10.8088C65.0047 11.8391 65.5489 13.3917 65.5489 15.4668V18.3183C65.5489 20.3934 65.0047 21.946 63.9164 22.9763C62.8426 23.9921 61.2899 24.5 59.2583 24.5H53.1637ZM57.5823 22.3669H59.2801C60.6006 22.3669 61.5801 22.0331 62.2186 21.3656C62.8571 20.6981 63.1763 19.7041 63.1763 18.3836V15.3798C63.1763 14.0447 62.8571 13.0507 62.2186 12.3977C61.5801 11.7447 60.6006 11.4182 59.2801 11.4182H57.5823V22.3669ZM72.7545 24.8047C71.6662 24.8047 70.7157 24.5798 69.9031 24.13C69.0905 23.6656 68.452 23.0199 67.9876 22.1927C67.5378 21.3511 67.3128 20.3788 67.3128 19.276V19.0148C67.3128 17.8974 67.5378 16.9252 67.9876 16.0981C68.4375 15.2564 69.0614 14.6107 69.8595 14.1608C70.6722 13.6965 71.6081 13.4643 72.6674 13.4643C73.6977 13.4643 74.5974 13.6965 75.3665 14.1608C76.1501 14.6107 76.7596 15.2419 77.1949 16.0545C77.6302 16.8672 77.8479 17.8176 77.8479 18.906V19.7549H69.5983C69.6274 20.6981 69.9394 21.4527 70.5343 22.0186C71.1438 22.57 71.8984 22.8457 72.798 22.8457C73.6397 22.8457 74.2709 22.6571 74.6917 22.2798C75.1271 21.9025 75.4608 21.4672 75.693 20.9738L77.5432 21.9315C77.34 22.3378 77.0425 22.7659 76.6507 23.2158C76.2735 23.6656 75.7728 24.0429 75.1488 24.3476C74.5249 24.6524 73.7268 24.8047 72.7545 24.8047ZM69.6201 18.0353H75.5624C75.5044 17.2227 75.2141 16.5914 74.6917 16.1416C74.1693 15.6772 73.4873 15.4451 72.6457 15.4451C71.804 15.4451 71.1148 15.6772 70.5778 16.1416C70.0554 16.5914 69.7362 17.2227 69.6201 18.0353ZM81.6447 24.5V15.6627H78.6409V13.769H81.6447V11.4182C81.6447 10.7652 81.8406 10.2428 82.2324 9.85103C82.6242 9.45923 83.1466 9.26333 83.7996 9.26333H86.5639V11.157H84.5179C84.097 11.157 83.8866 11.3747 83.8866 11.81V13.769H86.9775V15.6627H83.8866V24.5H81.6447ZM93.4192 24.8047C92.3454 24.8047 91.3877 24.5871 90.546 24.1517C89.7189 23.7019 89.0659 23.0634 88.587 22.2363C88.1082 21.4091 87.8687 20.4296 87.8687 19.2978V18.9713C87.8687 17.8394 88.1082 16.8672 88.587 16.0545C89.0659 15.2274 89.7189 14.5889 90.546 14.1391C91.3877 13.6892 92.3454 13.4643 93.4192 13.4643C94.4931 13.4643 95.4508 13.6892 96.2924 14.1391C97.1341 14.5889 97.7943 15.2274 98.2732 16.0545C98.7521 16.8672 98.9915 17.8394 98.9915 18.9713V19.2978C98.9915 20.4296 98.7521 21.4091 98.2732 22.2363C97.7943 23.0634 97.1341 23.7019 96.2924 24.1517C95.4508 24.5871 94.4931 24.8047 93.4192 24.8047ZM93.4192 22.8022C94.406 22.8022 95.2041 22.4902 95.8136 21.8662C96.4375 21.2277 96.7495 20.3498 96.7495 19.2325V19.0366C96.7495 17.9192 96.4448 17.0485 95.8353 16.4246C95.2259 15.7861 94.4205 15.4668 93.4192 15.4668C92.447 15.4668 91.6489 15.7861 91.0249 16.4246C90.4154 17.0485 90.1107 17.9192 90.1107 19.0366V19.2325C90.1107 20.3498 90.4154 21.2277 91.0249 21.8662C91.6489 22.4902 92.447 22.8022 93.4192 22.8022ZM100.825 19.1889V18.8624C100.825 17.7306 101.05 16.7656 101.5 15.9675C101.964 15.1694 102.574 14.5526 103.328 14.1173C104.083 13.682 104.91 13.4643 105.81 13.4643C106.854 13.4643 107.652 13.6602 108.204 14.052C108.77 14.4438 109.183 14.8646 109.445 15.3145H109.793V13.769H111.97V26.6984C111.97 27.3514 111.774 27.8738 111.382 28.2656C111.005 28.6574 110.482 28.8533 109.815 28.8533H102.588V26.8943H109.118C109.539 26.8943 109.749 26.6767 109.749 26.2413V22.824H109.401C109.241 23.0852 109.017 23.3536 108.726 23.6293C108.436 23.905 108.052 24.13 107.573 24.3041C107.108 24.4782 106.521 24.5653 105.81 24.5653C104.91 24.5653 104.075 24.3549 103.306 23.9341C102.552 23.4987 101.95 22.882 101.5 22.0839C101.05 21.2713 100.825 20.3063 100.825 19.1889ZM106.419 22.6063C107.391 22.6063 108.189 22.3016 108.813 21.6921C109.452 21.0681 109.771 20.212 109.771 19.1236V18.9277C109.771 17.8104 109.459 16.9542 108.835 16.3593C108.211 15.7498 107.406 15.4451 106.419 15.4451C105.461 15.4451 104.663 15.7498 104.025 16.3593C103.401 16.9542 103.089 17.8104 103.089 18.9277V19.1236C103.089 20.212 103.401 21.0681 104.025 21.6921C104.663 22.3016 105.461 22.6063 106.419 22.6063ZM116.185 24.8047C115.677 24.8047 115.249 24.6379 114.9 24.3041C114.567 23.9703 114.4 23.5423 114.4 23.0199C114.4 22.4975 114.567 22.0766 114.9 21.7574C115.249 21.4236 115.677 21.2568 116.185 21.2568C116.693 21.2568 117.113 21.4236 117.447 21.7574C117.795 22.0912 117.969 22.512 117.969 23.0199C117.969 23.5423 117.795 23.9703 117.447 24.3041C117.113 24.6379 116.693 24.8047 116.185 24.8047ZM123.746 24.8047C122.977 24.8047 122.287 24.6741 121.678 24.4129C121.083 24.1517 120.604 23.7672 120.241 23.2593C119.893 22.7514 119.719 22.1347 119.719 21.4091C119.719 20.6691 119.893 20.0596 120.241 19.5807C120.604 19.0874 121.09 18.7173 121.7 18.4706C122.324 18.2239 123.027 18.1006 123.811 18.1006H127.076V17.4041C127.076 16.7801 126.887 16.2795 126.51 15.9022C126.133 15.5249 125.552 15.3362 124.769 15.3362C124 15.3362 123.412 15.5176 123.006 15.8804C122.599 16.2432 122.331 16.7148 122.2 17.2952L120.111 16.6205C120.285 16.04 120.56 15.5176 120.938 15.0533C121.33 14.5744 121.845 14.1899 122.483 13.8996C123.122 13.6094 123.891 13.4643 124.79 13.4643C126.184 13.4643 127.279 13.8198 128.077 14.5309C128.875 15.2419 129.274 16.2504 129.274 17.5564V21.9751C129.274 22.4104 129.478 22.6281 129.884 22.6281H130.798V24.5H129.122C128.614 24.5 128.201 24.3694 127.881 24.1082C127.562 23.847 127.402 23.4915 127.402 23.0416V22.9763H127.076C126.96 23.194 126.786 23.4479 126.554 23.7382C126.321 24.0284 125.98 24.2823 125.531 24.5C125.081 24.7032 124.486 24.8047 123.746 24.8047ZM124.072 22.9546C124.972 22.9546 125.697 22.7006 126.249 22.1927C126.8 21.6703 127.076 20.9593 127.076 20.0596V19.8419H123.942C123.347 19.8419 122.868 19.9725 122.505 20.2337C122.142 20.4804 121.961 20.8505 121.961 21.3438C121.961 21.8372 122.149 22.229 122.527 22.5192C122.904 22.8095 123.419 22.9546 124.072 22.9546ZM132.543 24.5V13.769H134.785V24.5H132.543ZM133.674 12.3107C133.239 12.3107 132.869 12.1728 132.564 11.8971C132.274 11.6069 132.129 11.2368 132.129 10.787C132.129 10.3372 132.274 9.97438 132.564 9.69867C132.869 9.40844 133.239 9.26333 133.674 9.26333C134.124 9.26333 134.494 9.40844 134.785 9.69867C135.075 9.97438 135.22 10.3372 135.22 10.787C135.22 11.2368 135.075 11.6069 134.785 11.8971C134.494 12.1728 134.124 12.3107 133.674 12.3107Z" fill="#182547"/>
<defs>
<clipPath id="clip0_123_2140">
<rect width="39.1406" height="23.9144" fill="white" transform="translate(0 5.54272)"/>
</clipPath>
</defs>
</svg>